<svg xmlns="http://www.w3.org/2000/svg" xmlns:xlink="http://www.w3.org/1999/xlink" xmlns:lucid="lucid" width="1132" height="380"><g transform="translate(-338 -80)" lucid:page-tab-id="0_0"><path d="M0 0h1870.87v3840.5H0z" fill="#fff"/><path d="M380 120h240v60H380z" fill="none"/><use xlink:href="#a" transform="matrix(1,0,0,1,380.0000000000001,120) translate(14.333333333333329 35.33333333333333)"/><use xlink:href="#b" transform="matrix(1,0,0,1,380.0000000000001,120) translate(157.66666666666669 35.33333333333333)"/><path d="M488.2 325.12h18v13.94h-18v-13.94zM401.2 200h190.4v125.12H401.2V200z" fill="#c92d39"/><path d="M409.8 207.65h173.8V319.5H409.8V207.66z" fill="#fff" fill-opacity=".98"/><path d="M408.6 339.9h173.6l-8.6 29.93H400l8.6-29.92z" fill="#c92d39"/><path d="M407.6 338.9h177.6l14.8 30.93H422.4l-14.8-30.94z" fill="#c92d39"/><path d="M467.8 361.84H531v6.3h-63.2v-6.3zM433 343.82h4.6v3.9H433v-3.9zM441.2 344h4.8v3.9h-4.8V344zM451.8 351.13h4.8v3.9h-4.8v-3.9zM450.2 343.48h4.6v4.08h-4.6v-4.08zM458.2 343.82h4.8v3.9h-4.8v-3.9zM466 343.48h4.8v4.08H466v-4.08zM515 344.16h4.8v4.08H515v-4.08zM522.2 344.16h4.8v4.08h-4.8v-4.08zM529 344.16h4.8v4.08H529v-4.08zM537.2 344.16h4.6v4.08h-4.6v-4.08zM544.6 344.16h4.6v4.08h-4.6v-4.08zM535.8 350.8h4.6v3.9h-4.6v-3.9zM553 344.16h4.8v4.08H553v-4.08zM460.8 350.96h4.6v3.9h-4.6v-3.9zM469.8 350.96h4.6v3.9h-4.6v-3.9zM528.4 350.62h4v3.9h-4v-3.9zM520.2 350.62h4.8v3.9h-4.8v-3.9zM474.8 343.65h4.8v4.08h-4.8v-4.08zM483.8 343.82h4.6v4.08h-4.6v-4.08zM492 343.65h4.6v4.08H492v-4.08zM501 343.65h4.6v4.08H501v-4.08zM508.4 343.82h4.6v4.08h-4.6v-4.08zM477.8 350.8h4.8v3.9h-4.8v-3.9zM486.8 350.8h4.6v3.9h-4.6v-3.9zM495 350.96h4.8v3.9H495v-3.9zM503.2 350.96h4.6v3.9h-4.6v-3.9zM511.6 350.62h4.6v3.9h-4.6v-3.9z" fill="#fff"/><path d="M400.2 369.83l199.8-.68-14.2-30.26-177 .33-8.6 30.6z" fill="none"/><path d="M487.2 325.12h19.6V327h-19.6v-1.88zM488 336.68h18.6v2.2H488v-2.2z" fill="#fff"/><use xlink:href="#c" transform="matrix(1,0,0,1,370,370) translate(85.64814814814815 19.444444444444443)"/><path d="M1300 198.57h100.1v171.6H1300v-171.6z" fill="#fcc438"/><path d="M1338.2 317.7h50.9c1.6 0 1.6 0 1.6 1.73 0 1.54 0 1.54-1.6 1.54h-50.9c-1.7 0-1.7 0-1.7-1.54 0-1.72 0-1.72 1.7-1.72zM1338.3 326.46h50.7c2.2 0 2.2 0 2.2 2.23v.5c0 2.23 0 2.23-2.2 2.23h-50.7c-2.3 0-2.3 0-2.3-2.23v-.5c0-2.24 0-2.24 2.3-2.24zM1338.5 337.26h50.8c2.2 0 2.2 0 2.2 2.23v.5c0 2.23 0 2.23-2.2 2.23h-50.8c-2.2 0-2.2 0-2.2-2.23v-.5c0-2.24 0-2.24 2.2-2.24zM1384.8 281.9c0 4.44-3.6 8.04-8.2 8.04s-8.3-3.6-8.3-8.05c0-4.47 3.7-8.07 8.3-8.07 4.6 0 8.2 3.6 8.2 8.06z" fill="#fff"/><path d="M1381.5 281.9c0 2.73-2.2 4.96-5 4.96s-5.1-2.23-5.1-4.97c0-2.76 2.3-5 5.1-5s5 2.24 5 5z" fill="#fdd060"/><use xlink:href="#d" transform="matrix(1,0,0,1,1270,370) translate(17.74691358024691 19.444444444444443)"/><path d="M755.03 228.7H593.1v-3h161.93zm542.24 0h-160.7v-3h160.7z" fill="#999"/><path d="M593.14 228.7h-1.54v-3h1.54zM1300 227.2l-19.4 11.47-1.53-2.58 15.04-8.9-15.03-8.9 1.53-2.57z" fill="#999"/><use xlink:href="#e" transform="matrix(1,0,0,1,755.0283950617284,213.86666666666662) translate(0 17.77777777777778)"/><use xlink:href="#f" transform="matrix(1,0,0,1,755.0283950617284,213.86666666666662) translate(51.79012345679012 17.77777777777778)"/><use xlink:href="#g" transform="matrix(1,0,0,1,755.0283950617284,213.86666666666662) translate(152.71604938271605 17.77777777777778)"/><use xlink:href="#h" transform="matrix(1,0,0,1,755.0283950617284,213.86666666666662) translate(280.679012345679 17.77777777777778)"/><use xlink:href="#i" transform="matrix(1,0,0,1,755.0283950617284,213.86666666666662) translate(307.716049382716 17.77777777777778)"/><use xlink:href="#j" transform="matrix(1,0,0,1,755.0283950617284,213.86666666666662) translate(358.2098765432098 17.77777777777778)"/><path d="M892.53 285.8h-298.2v-3h298.2zm405.97 0H999.07v-3h299.43z" fill="#999"/><path d="M1300 285.8h-1.54v-3h1.54zM612.53 275.4l-15.04 8.9 15.03 8.88-1.53 2.58-19.4-11.47 19.4-11.5z" fill="#999"/><use xlink:href="#k" transform="matrix(1,0,0,1,892.5283950617284,270.95238095238096) translate(0 17.77777777777778)"/><path d="M784 348.88H590.77v-3H784zm513.27 0h-192.02v-3h192.02z" fill="#999"/><path d="M590.8 348.88h-.82l-1.44-3h2.26zM1300 347.38l-19.4 11.47-1.53-2.6 15.04-8.87-15.03-8.9 1.53-2.58z" fill="#999"/><use xlink:href="#l" transform="matrix(1,0,0,1,784.0121533799495,334.041908694739) translate(0 17.77777777777778)"/><use xlink:href="#m" transform="matrix(1,0,0,1,784.0121533799495,334.041908694739) translate(54.135802469135804 17.77777777777778)"/><use xlink:href="#n" transform="matrix(1,0,0,1,784.0121533799495,334.041908694739) translate(189.44444444444443 17.77777777777778)"/><path d="M1300 198.57h100.1v171.6H1300v-171.6z" fill="#fcc438"/><path d="M1338.2 317.7h50.9c1.6 0 1.6 0 1.6 1.73 0 1.54 0 1.54-1.6 1.54h-50.9c-1.7 0-1.7 0-1.7-1.54 0-1.72 0-1.72 1.7-1.72zM1338.3 326.46h50.7c2.2 0 2.2 0 2.2 2.23v.5c0 2.23 0 2.23-2.2 2.23h-50.7c-2.3 0-2.3 0-2.3-2.23v-.5c0-2.24 0-2.24 2.3-2.24zM1338.5 337.26h50.8c2.2 0 2.2 0 2.2 2.23v.5c0 2.23 0 2.23-2.2 2.23h-50.8c-2.2 0-2.2 0-2.2-2.23v-.5c0-2.24 0-2.24 2.2-2.24zM1384.8 281.9c0 4.44-3.6 8.04-8.2 8.04s-8.3-3.6-8.3-8.05c0-4.47 3.7-8.07 8.3-8.07 4.6 0 8.2 3.6 8.2 8.06z" fill="#fff"/><path d="M1381.5 281.9c0 2.73-2.2 4.96-5 4.96s-5.1-2.23-5.1-4.97c0-2.76 2.3-5 5.1-5s5 2.24 5 5z" fill="#fdd060"/><g><use xlink:href="#d" transform="matrix(1,0,0,1,1270,370) translate(17.74691358024691 19.444444444444443)"/></g><path d="M380 240h240v60H380z" fill="none"/><g><use xlink:href="#o" transform="matrix(1,0,0,1,380,240) translate(81.23456790123457 34.44444444444444)"/><use xlink:href="#p" transform="matrix(1,0,0,1,380,240) translate(144.07407407407408 34.44444444444444)"/></g><defs><path fill="#333" d="M240-174c0 40-23 61-54 70L253 0h-59l-57-94H76V0H24v-248c93 4 217-23 216 74zM76-134c48-2 112 12 112-38 0-48-66-32-112-35v73" id="q"/><path fill="#333" d="M185-48c-13 30-37 53-82 52C43 2 14-33 14-96s30-98 90-98c62 0 83 45 84 108H66c0 31 8 55 39 56 18 0 30-7 34-22zm-45-69c5-46-57-63-70-21-2 6-4 13-4 21h74" id="r"/><path fill="#333" d="M137-138c1-29-70-34-71-4 15 46 118 7 119 86 1 83-164 76-172 9l43-7c4 19 20 25 44 25 33 8 57-30 24-41C81-84 22-81 20-136c-2-80 154-74 161-7" id="s"/><path fill="#333" d="M135-194c53 0 70 44 70 98 0 56-19 98-73 100-31 1-45-17-59-34 3 33 2 69 2 105H25l-1-265h48c2 10 0 23 3 31 11-24 29-35 60-35zM114-30c33 0 39-31 40-66 0-38-9-64-40-64-56 0-55 130 0 130" id="t"/><path fill="#333" d="M110-194c64 0 96 36 96 99 0 64-35 99-97 99-61 0-95-36-95-99 0-62 34-99 96-99zm-1 164c35 0 45-28 45-65 0-40-10-65-43-65-34 0-45 26-45 65 0 36 10 65 43 65" id="u"/><path fill="#333" d="M135-194c87-1 58 113 63 194h-50c-7-57 23-157-34-157-59 0-34 97-39 157H25l-1-190h47c2 12-1 28 3 38 12-26 28-41 61-42" id="v"/><path fill="#333" d="M35-132v-50h50v50H35zM35 0v-49h50V0H35" id="w"/><g id="a"><use transform="matrix(0.07407407407407407,0,0,0.07407407407407407,0,0)" xlink:href="#q"/><use transform="matrix(0.07407407407407407,0,0,0.07407407407407407,19.185185185185183,0)" xlink:href="#r"/><use transform="matrix(0.07407407407407407,0,0,0.07407407407407407,34,0)" xlink:href="#s"/><use transform="matrix(0.07407407407407407,0,0,0.07407407407407407,48.81481481481481,0)" xlink:href="#t"/><use transform="matrix(0.07407407407407407,0,0,0.07407407407407407,65.03703703703704,0)" xlink:href="#u"/><use transform="matrix(0.07407407407407407,0,0,0.07407407407407407,81.25925925925927,0)" xlink:href="#v"/><use transform="matrix(0.07407407407407407,0,0,0.07407407407407407,97.4814814814815,0)" xlink:href="#s"/><use transform="matrix(0.07407407407407407,0,0,0.07407407407407407,112.2962962962963,0)" xlink:href="#r"/><use transform="matrix(0.07407407407407407,0,0,0.07407407407407407,127.11111111111111,0)" xlink:href="#w"/></g><path fill="#333" d="M140-251c80 0 125 45 125 126S219 4 139 4C58 4 15-44 15-125s44-126 125-126zm-1 214c52 0 73-35 73-88 0-50-21-86-72-86-52 0-73 35-73 86s22 88 72 88" id="x"/><g id="b"><use transform="matrix(0.07407407407407407,0,0,0.07407407407407407,0,0)" xlink:href="#x"/><use transform="matrix(0.07407407407407407,0,0,0.07407407407407407,20.74074074074074,0)" xlink:href="#t"/><use transform="matrix(0.07407407407407407,0,0,0.07407407407407407,36.96296296296296,0)" xlink:href="#r"/><use transform="matrix(0.07407407407407407,0,0,0.07407407407407407,51.77777777777777,0)" xlink:href="#v"/></g><path fill="#333" d="M199 0l-22-63H83L61 0H9l90-248h61L250 0h-51zm-33-102l-36-108c-10 38-24 72-36 108h72" id="y"/><path fill="#333" d="M115-3C79 11 28 4 28-45v-112H4v-33h27l15-45h31v45h36v33H77v99c-1 23 16 31 38 25v30" id="z"/><path fill="#333" d="M133-34C117-15 103 5 69 4 32 3 11-16 11-54c-1-60 55-63 116-61 1-26-3-47-28-47-18 1-26 9-28 27l-52-2c7-38 36-58 82-57s74 22 75 68l1 82c-1 14 12 18 25 15v27c-30 8-71 5-69-32zm-48 3c29 0 43-24 42-57-32 0-66-3-65 30 0 17 8 27 23 27" id="A"/><path fill="#333" d="M190-63c-7 42-38 67-86 67-59 0-84-38-90-98-12-110 154-137 174-36l-49 2c-2-19-15-32-35-32-30 0-35 28-38 64-6 74 65 87 74 30" id="B"/><path fill="#333" d="M147 0L96-86 75-71V0H25v-261h50v150l67-79h53l-66 74L201 0h-54" id="C"/><path fill="#333" d="M135-150c-39-12-60 13-60 57V0H25l-1-190h47c2 13-1 29 3 40 6-28 27-53 61-41v41" id="D"/><g id="c"><use transform="matrix(0.06172839506172839,0,0,0.06172839506172839,0,0)" xlink:href="#y"/><use transform="matrix(0.06172839506172839,0,0,0.06172839506172839,15.987654320987653,0)" xlink:href="#z"/><use transform="matrix(0.06172839506172839,0,0,0.06172839506172839,23.333333333333332,0)" xlink:href="#z"/><use transform="matrix(0.06172839506172839,0,0,0.06172839506172839,30.679012345679013,0)" xlink:href="#A"/><use transform="matrix(0.06172839506172839,0,0,0.06172839506172839,43.02469135802469,0)" xlink:href="#B"/><use transform="matrix(0.06172839506172839,0,0,0.06172839506172839,55.37037037037037,0)" xlink:href="#C"/><use transform="matrix(0.06172839506172839,0,0,0.06172839506172839,67.71604938271605,0)" xlink:href="#r"/><use transform="matrix(0.06172839506172839,0,0,0.06172839506172839,80.06172839506173,0)" xlink:href="#D"/></g><path fill="#333" d="M169-182c-1-43-94-46-97-3 18 66 151 10 154 114 3 95-165 93-204 36-6-8-10-19-12-30l50-8c3 46 112 56 116 5-17-69-150-10-154-114-4-87 153-88 188-35 5 8 8 18 10 28" id="E"/><path fill="#333" d="M128 0H69L1-190h53L99-40l48-150h52" id="F"/><path fill="#333" d="M4 7l51-268h42L46 7H4" id="G"/><path fill="#333" d="M186 0v-106H76V0H24v-248h52v99h110v-99h50V0h-50" id="H"/><g id="d"><use transform="matrix(0.06172839506172839,0,0,0.06172839506172839,0,0)" xlink:href="#E"/><use transform="matrix(0.06172839506172839,0,0,0.06172839506172839,14.814814814814813,0)" xlink:href="#r"/><use transform="matrix(0.06172839506172839,0,0,0.06172839506172839,27.160493827160494,0)" xlink:href="#D"/><use transform="matrix(0.06172839506172839,0,0,0.06172839506172839,35.80246913580247,0)" xlink:href="#F"/><use transform="matrix(0.06172839506172839,0,0,0.06172839506172839,48.148148148148145,0)" xlink:href="#r"/><use transform="matrix(0.06172839506172839,0,0,0.06172839506172839,60.49382716049382,0)" xlink:href="#D"/><use transform="matrix(0.06172839506172839,0,0,0.06172839506172839,69.1358024691358,0)" xlink:href="#G"/><use transform="matrix(0.06172839506172839,0,0,0.06172839506172839,75.30864197530863,0)" xlink:href="#H"/><use transform="matrix(0.06172839506172839,0,0,0.06172839506172839,91.29629629629629,0)" xlink:href="#u"/><use transform="matrix(0.06172839506172839,0,0,0.06172839506172839,104.81481481481481,0)" xlink:href="#s"/><use transform="matrix(0.06172839506172839,0,0,0.06172839506172839,117.1604938271605,0)" xlink:href="#z"/></g><path fill="#333" d="M146-102V0H94v-102L6-248h54l60 105 60-105h54" id="I"/><path fill="#333" d="M175 0L67-191c6 58 2 128 3 191H24v-248h59L193-55c-6-58-2-129-3-193h46V0h-61" id="J"/><g id="e"><use transform="matrix(0.06172839506172839,0,0,0.06172839506172839,0,0)" xlink:href="#E"/><use transform="matrix(0.06172839506172839,0,0,0.06172839506172839,14.814814814814813,0)" xlink:href="#I"/><use transform="matrix(0.06172839506172839,0,0,0.06172839506172839,29.629629629629626,0)" xlink:href="#J"/></g><path fill="#333" d="M67-93c0 74 22 123 53 168H70C40 30 18-18 18-93s22-123 52-168h50c-32 44-53 94-53 168" id="K"/><path fill="#333" d="M84 4C32 4 15-41 15-95c0-55 18-99 73-99 29 0 47 12 58 34l2-30h48l-1 265h-49V-32C136-9 114 4 84 4zm21-34c32 0 41-29 41-66 0-36-9-64-40-64-33 0-39 30-40 65 0 43 13 65 39 65" id="L"/><path fill="#333" d="M85 4C-2 5 27-109 22-190h50c7 57-23 150 33 157 60-5 35-97 40-157h50l1 190h-47c-2-12 1-28-3-38-12 25-28 42-61 42" id="M"/><g id="f"><use transform="matrix(0.06172839506172839,0,0,0.06172839506172839,0,0)" xlink:href="#K"/><use transform="matrix(0.06172839506172839,0,0,0.06172839506172839,7.345679012345679,0)" xlink:href="#q"/><use transform="matrix(0.06172839506172839,0,0,0.06172839506172839,23.333333333333332,0)" xlink:href="#r"/><use transform="matrix(0.06172839506172839,0,0,0.06172839506172839,35.67901234567901,0)" xlink:href="#L"/><use transform="matrix(0.06172839506172839,0,0,0.06172839506172839,49.19753086419753,0)" xlink:href="#M"/><use transform="matrix(0.06172839506172839,0,0,0.06172839506172839,62.71604938271605,0)" xlink:href="#r"/><use transform="matrix(0.06172839506172839,0,0,0.06172839506172839,75.06172839506173,0)" xlink:href="#s"/><use transform="matrix(0.06172839506172839,0,0,0.06172839506172839,87.40740740740742,0)" xlink:href="#z"/></g><path fill="#333" d="M67-125c0 53 21 87 73 88 37 1 54-22 65-47l45 17C233-25 199 4 140 4 58 4 20-42 15-125 8-235 124-281 211-232c18 10 29 29 36 50l-46 12c-8-25-30-41-62-41-52 0-71 34-72 86" id="N"/><path fill="#333" d="M25-224v-37h50v37H25zM25 0v-190h50V0H25" id="O"/><g id="g"><use transform="matrix(0.06172839506172839,0,0,0.06172839506172839,0,0)" xlink:href="#N"/><use transform="matrix(0.06172839506172839,0,0,0.06172839506172839,15.987654320987653,0)" xlink:href="#u"/><use transform="matrix(0.06172839506172839,0,0,0.06172839506172839,29.50617283950617,0)" xlink:href="#v"/><use transform="matrix(0.06172839506172839,0,0,0.06172839506172839,43.02469135802469,0)" xlink:href="#v"/><use transform="matrix(0.06172839506172839,0,0,0.06172839506172839,56.54320987654321,0)" xlink:href="#r"/><use transform="matrix(0.06172839506172839,0,0,0.06172839506172839,68.88888888888889,0)" xlink:href="#B"/><use transform="matrix(0.06172839506172839,0,0,0.06172839506172839,81.23456790123457,0)" xlink:href="#z"/><use transform="matrix(0.06172839506172839,0,0,0.06172839506172839,88.58024691358025,0)" xlink:href="#O"/><use transform="matrix(0.06172839506172839,0,0,0.06172839506172839,94.75308641975309,0)" xlink:href="#u"/><use transform="matrix(0.06172839506172839,0,0,0.06172839506172839,108.27160493827161,0)" xlink:href="#v"/></g><g id="h"><use transform="matrix(0.06172839506172839,0,0,0.06172839506172839,0,0)" xlink:href="#z"/><use transform="matrix(0.06172839506172839,0,0,0.06172839506172839,7.345679012345679,0)" xlink:href="#u"/></g><path fill="#333" d="M24-248c93 1 206-16 204 79-1 75-69 88-152 82V0H24v-248zm52 121c47 0 100 7 100-41 0-47-54-39-100-39v80" id="P"/><g id="i"><use transform="matrix(0.06172839506172839,0,0,0.06172839506172839,0,0)" xlink:href="#P"/><use transform="matrix(0.06172839506172839,0,0,0.06172839506172839,14.814814814814813,0)" xlink:href="#u"/><use transform="matrix(0.06172839506172839,0,0,0.06172839506172839,28.33333333333333,0)" xlink:href="#D"/><use transform="matrix(0.06172839506172839,0,0,0.06172839506172839,36.9753086419753,0)" xlink:href="#z"/></g><path fill="#333" d="M102-93c0 74-22 123-52 168H0C30 29 54-18 53-93c0-74-22-123-53-168h50c30 45 52 94 52 168" id="Q"/><g id="j"><use transform="matrix(0.06172839506172839,0,0,0.06172839506172839,0,0)" xlink:href="#J"/><use transform="matrix(0.06172839506172839,0,0,0.06172839506172839,15.987654320987653,0)" xlink:href="#Q"/></g><path fill="#333" d="M125-100v72H85v-72H15v-39h70v-72h40v72h71v39h-71" id="R"/><path fill="#333" d="M195 0l-88-114-31 24V0H24v-248h52v113l112-113h60L142-143 257 0h-62" id="S"/><g id="k"><use transform="matrix(0.06172839506172839,0,0,0.06172839506172839,0,0)" xlink:href="#E"/><use transform="matrix(0.06172839506172839,0,0,0.06172839506172839,14.814814814814813,0)" xlink:href="#I"/><use transform="matrix(0.06172839506172839,0,0,0.06172839506172839,29.629629629629626,0)" xlink:href="#J"/><use transform="matrix(0.06172839506172839,0,0,0.06172839506172839,45.61728395061728,0)" xlink:href="#R"/><use transform="matrix(0.06172839506172839,0,0,0.06172839506172839,58.58024691358024,0)" xlink:href="#y"/><use transform="matrix(0.06172839506172839,0,0,0.06172839506172839,74.5679012345679,0)" xlink:href="#N"/><use transform="matrix(0.06172839506172839,0,0,0.06172839506172839,90.55555555555556,0)" xlink:href="#S"/></g><g id="l"><use transform="matrix(0.06172839506172839,0,0,0.06172839506172839,0,0)" xlink:href="#y"/><use transform="matrix(0.06172839506172839,0,0,0.06172839506172839,15.987654320987653,0)" xlink:href="#N"/><use transform="matrix(0.06172839506172839,0,0,0.06172839506172839,31.975308641975307,0)" xlink:href="#S"/></g><g id="m"><use transform="matrix(0.06172839506172839,0,0,0.06172839506172839,0,0)" xlink:href="#K"/><use transform="matrix(0.06172839506172839,0,0,0.06172839506172839,7.345679012345679,0)" xlink:href="#N"/><use transform="matrix(0.06172839506172839,0,0,0.06172839506172839,23.333333333333332,0)" xlink:href="#u"/><use transform="matrix(0.06172839506172839,0,0,0.06172839506172839,36.85185185185185,0)" xlink:href="#v"/><use transform="matrix(0.06172839506172839,0,0,0.06172839506172839,50.37037037037037,0)" xlink:href="#v"/><use transform="matrix(0.06172839506172839,0,0,0.06172839506172839,63.888888888888886,0)" xlink:href="#r"/><use transform="matrix(0.06172839506172839,0,0,0.06172839506172839,76.23456790123457,0)" xlink:href="#B"/><use transform="matrix(0.06172839506172839,0,0,0.06172839506172839,88.58024691358025,0)" xlink:href="#z"/><use transform="matrix(0.06172839506172839,0,0,0.06172839506172839,95.92592592592594,0)" xlink:href="#O"/><use transform="matrix(0.06172839506172839,0,0,0.06172839506172839,102.09876543209877,0)" xlink:href="#u"/><use transform="matrix(0.06172839506172839,0,0,0.06172839506172839,115.61728395061729,0)" xlink:href="#v"/></g><path fill="#333" d="M24 0v-248h195v40H76v63h132v40H76v65h150V0H24" id="T"/><path fill="#333" d="M135-194c52 0 70 43 70 98 0 56-19 99-73 100-30 1-46-15-58-35L72 0H24l1-261h50v104c11-23 29-37 60-37zM114-30c31 0 40-27 40-66 0-37-7-63-39-63s-41 28-41 65c0 36 8 64 40 64" id="U"/><path fill="#333" d="M25 0v-261h50V0H25" id="V"/><path fill="#333" d="M114-157C55-157 80-60 75 0H25v-261h50l-1 109c12-26 28-41 61-42 86-1 58 113 63 194h-50c-7-57 23-157-34-157" id="W"/><path fill="#333" d="M88-194c31-1 46 15 58 34l-1-101h50l1 261h-48c-2-10 0-23-3-31C134-8 116 4 84 4 32 4 16-41 15-95c0-56 19-97 73-99zm17 164c33 0 40-30 41-66 1-37-9-64-41-64s-38 30-39 65c0 43 13 65 39 65" id="X"/><g id="n"><use transform="matrix(0.06172839506172839,0,0,0.06172839506172839,0,0)" xlink:href="#T"/><use transform="matrix(0.06172839506172839,0,0,0.06172839506172839,14.814814814814813,0)" xlink:href="#s"/><use transform="matrix(0.06172839506172839,0,0,0.06172839506172839,27.160493827160494,0)" xlink:href="#z"/><use transform="matrix(0.06172839506172839,0,0,0.06172839506172839,34.50617283950617,0)" xlink:href="#A"/><use transform="matrix(0.06172839506172839,0,0,0.06172839506172839,46.85185185185185,0)" xlink:href="#U"/><use transform="matrix(0.06172839506172839,0,0,0.06172839506172839,60.37037037037037,0)" xlink:href="#V"/><use transform="matrix(0.06172839506172839,0,0,0.06172839506172839,66.5432098765432,0)" xlink:href="#O"/><use transform="matrix(0.06172839506172839,0,0,0.06172839506172839,72.71604938271604,0)" xlink:href="#s"/><use transform="matrix(0.06172839506172839,0,0,0.06172839506172839,85.06172839506172,0)" xlink:href="#W"/><use transform="matrix(0.06172839506172839,0,0,0.06172839506172839,98.58024691358024,0)" xlink:href="#r"/><use transform="matrix(0.06172839506172839,0,0,0.06172839506172839,110.92592592592592,0)" xlink:href="#X"/><use transform="matrix(0.06172839506172839,0,0,0.06172839506172839,124.44444444444444,0)" xlink:href="#Q"/></g><g id="o"><use transform="matrix(0.06172839506172839,0,0,0.06172839506172839,0,0)" xlink:href="#x"/><use transform="matrix(0.06172839506172839,0,0,0.06172839506172839,17.28395061728395,0)" xlink:href="#t"/><use transform="matrix(0.06172839506172839,0,0,0.06172839506172839,30.80246913580247,0)" xlink:href="#r"/><use transform="matrix(0.06172839506172839,0,0,0.06172839506172839,43.148148148148145,0)" xlink:href="#v"/></g><g id="p"><use transform="matrix(0.06172839506172839,0,0,0.06172839506172839,0,0)" xlink:href="#w"/><use transform="matrix(0.06172839506172839,0,0,0.06172839506172839,7.345679012345679,0)" xlink:href="#Q"/></g></defs></g></svg>