<svg xmlns="http://www.w3.org/2000/svg" xmlns:xlink="http://www.w3.org/1999/xlink" xmlns:lucid="lucid" width="1141" height="340"><g transform="translate(-341 -3501)" lucid:page-tab-id="0_0"><path d="M0 0h1870.87v3840.5H0z" fill="#fff"/><path d="M498.2 3707.98h18v13.94h-18v-13.94zM411.2 3582.86h190.4v125.12H411.2v-125.12z" fill="#c92d39"/><path d="M419.8 3590.5h173.8v111.87H419.8V3590.5z" fill="#fff" fill-opacity=".98"/><path d="M418.6 3722.77h173.6l-8.6 29.92H410l8.6-29.93z" fill="#c92d39"/><path d="M417.6 3721.75h177.6l14.8 30.94H432.4l-14.8-30.95z" fill="#c92d39"/><path d="M477.8 3744.7H541v6.3h-63.2v-6.3zM443 3726.68h4.6v3.9H443v-3.9zM451.2 3726.85h4.8v3.9h-4.8v-3.9zM461.8 3734h4.8v3.9h-4.8v-3.9zM460.2 3726.34h4.6v4.08h-4.6v-4.08zM468.2 3726.68h4.8v3.9h-4.8v-3.9zM476 3726.34h4.8v4.08H476v-4.08zM525 3727.02h4.8v4.08H525v-4.08zM532.2 3727.02h4.8v4.08h-4.8v-4.08zM539 3727.02h4.8v4.08H539v-4.08zM547.2 3727.02h4.6v4.08h-4.6v-4.08zM554.6 3727.02h4.6v4.08h-4.6v-4.08zM545.8 3733.65h4.6v3.9h-4.6v-3.9zM563 3727.02h4.8v4.08H563v-4.08zM470.8 3733.82h4.6v3.9h-4.6v-3.9zM479.8 3733.82h4.6v3.9h-4.6v-3.9zM538.4 3733.48h4v3.9h-4v-3.9zM530.2 3733.48h4.8v3.9h-4.8v-3.9zM484.8 3726.5h4.8v4.1h-4.8v-4.1zM493.8 3726.68h4.6v4.08h-4.6v-4.08zM502 3726.5h4.6v4.1H502v-4.1zM511 3726.5h4.6v4.1H511v-4.1zM518.4 3726.68h4.6v4.08h-4.6v-4.08zM487.8 3733.65h4.8v3.9h-4.8v-3.9zM496.8 3733.65h4.6v3.9h-4.6v-3.9zM505 3733.82h4.8v3.9H505v-3.9zM513.2 3733.82h4.6v3.9h-4.6v-3.9zM521.6 3733.48h4.6v3.9h-4.6v-3.9z" fill="#fff"/><path d="M410.2 3752.7l199.8-.7-14.2-30.25-177 .34-8.6 30.6z" fill="none"/><path d="M497.2 3707.98h19.6v1.87h-19.6v-1.87zM498 3719.54h18.6v2.2H498v-2.2z" fill="#fff"/><use xlink:href="#a" transform="matrix(1,0,0,1,380.0000000000001,3752.8571428571436) translate(85.64814814814815 19.444444444444443)"/><path d="M1310 3581.43h100.1v171.6H1310v-171.6z" fill="#fcc438"/><path d="M1348.2 3700.57h50.9c1.6 0 1.6 0 1.6 1.72 0 1.53 0 1.53-1.6 1.53h-50.9c-1.7 0-1.7 0-1.7-1.54 0-1.73 0-1.73 1.7-1.73zM1348.3 3709.3h50.7c2.2 0 2.2 0 2.2 2.24v.52c0 2.23 0 2.23-2.2 2.23h-50.7c-2.3 0-2.3 0-2.3-2.24v-.52c0-2.23 0-2.23 2.3-2.23zM1348.5 3720.1h50.8c2.2 0 2.2 0 2.2 2.24v.52c0 2.23 0 2.23-2.2 2.23h-50.8c-2.2 0-2.2 0-2.2-2.24v-.52c0-2.23 0-2.23 2.2-2.23zM1394.8 3664.74c0 4.46-3.6 8.06-8.2 8.06s-8.3-3.6-8.3-8.06c0-4.45 3.7-8.05 8.3-8.05 4.6 0 8.2 3.6 8.2 8.04z" fill="#fff"/><path d="M1391.5 3664.74c0 2.75-2.2 4.97-5 4.97s-5.1-2.2-5.1-4.96c0-2.74 2.3-4.97 5.1-4.97s5 2.23 5 4.97z" fill="#fdd060"/><use xlink:href="#b" transform="matrix(1,0,0,1,1280,3752.857142857143) translate(17.74691358024691 19.444444444444443)"/><path d="M803.4 3611.56H603.1v-3h200.3zm503.87 0h-265.24v-3h265.24z" fill="#999"/><path d="M603.14 3611.56h-1.54v-3h1.54zM1310 3610.06l-19.4 11.47-1.53-2.58 15.04-8.9-15.03-8.88 1.53-2.58z" fill="#999"/><use xlink:href="#c" transform="matrix(1,0,0,1,803.3904022454792,3596.72380952381) translate(0 17.77777777777778)"/><use xlink:href="#d" transform="matrix(1,0,0,1,803.3904022454792,3596.72380952381) translate(61.17283950617283 17.77777777777778)"/><use xlink:href="#e" transform="matrix(1,0,0,1,803.3904022454792,3596.72380952381) translate(131.41975308641975 17.77777777777778)"/><path d="M821.26 3731.73H602v-3h219.26zm487.24 0h-283.9v-3h283.9z" fill="#999"/><path d="M620.18 3721.34l-15.03 8.9 15.03 8.88-1.52 2.58-19.4-11.47 19.4-11.47zM1310 3731.73h-1.54v-3h1.54z" fill="#999"/><g><use xlink:href="#c" transform="matrix(1,0,0,1,821.2642648327351,3716.8990515518826) translate(0 17.77777777777778)"/><use xlink:href="#d" transform="matrix(1,0,0,1,821.2642648327351,3716.8990515518826) translate(61.17283950617283 17.77777777777778)"/><use xlink:href="#f" transform="matrix(1,0,0,1,821.2642648327351,3716.8990515518826) translate(131.41975308641975 17.77777777777778)"/></g><defs><path fill="#333" d="M199 0l-22-63H83L61 0H9l90-248h61L250 0h-51zm-33-102l-36-108c-10 38-24 72-36 108h72" id="g"/><path fill="#333" d="M115-3C79 11 28 4 28-45v-112H4v-33h27l15-45h31v45h36v33H77v99c-1 23 16 31 38 25v30" id="h"/><path fill="#333" d="M133-34C117-15 103 5 69 4 32 3 11-16 11-54c-1-60 55-63 116-61 1-26-3-47-28-47-18 1-26 9-28 27l-52-2c7-38 36-58 82-57s74 22 75 68l1 82c-1 14 12 18 25 15v27c-30 8-71 5-69-32zm-48 3c29 0 43-24 42-57-32 0-66-3-65 30 0 17 8 27 23 27" id="i"/><path fill="#333" d="M190-63c-7 42-38 67-86 67-59 0-84-38-90-98-12-110 154-137 174-36l-49 2c-2-19-15-32-35-32-30 0-35 28-38 64-6 74 65 87 74 30" id="j"/><path fill="#333" d="M147 0L96-86 75-71V0H25v-261h50v150l67-79h53l-66 74L201 0h-54" id="k"/><path fill="#333" d="M185-48c-13 30-37 53-82 52C43 2 14-33 14-96s30-98 90-98c62 0 83 45 84 108H66c0 31 8 55 39 56 18 0 30-7 34-22zm-45-69c5-46-57-63-70-21-2 6-4 13-4 21h74" id="l"/><path fill="#333" d="M135-150c-39-12-60 13-60 57V0H25l-1-190h47c2 13-1 29 3 40 6-28 27-53 61-41v41" id="m"/><g id="a"><use transform="matrix(0.06172839506172839,0,0,0.06172839506172839,0,0)" xlink:href="#g"/><use transform="matrix(0.06172839506172839,0,0,0.06172839506172839,15.987654320987653,0)" xlink:href="#h"/><use transform="matrix(0.06172839506172839,0,0,0.06172839506172839,23.333333333333332,0)" xlink:href="#h"/><use transform="matrix(0.06172839506172839,0,0,0.06172839506172839,30.679012345679013,0)" xlink:href="#i"/><use transform="matrix(0.06172839506172839,0,0,0.06172839506172839,43.02469135802469,0)" xlink:href="#j"/><use transform="matrix(0.06172839506172839,0,0,0.06172839506172839,55.37037037037037,0)" xlink:href="#k"/><use transform="matrix(0.06172839506172839,0,0,0.06172839506172839,67.71604938271605,0)" xlink:href="#l"/><use transform="matrix(0.06172839506172839,0,0,0.06172839506172839,80.06172839506173,0)" xlink:href="#m"/></g><path fill="#333" d="M169-182c-1-43-94-46-97-3 18 66 151 10 154 114 3 95-165 93-204 36-6-8-10-19-12-30l50-8c3 46 112 56 116 5-17-69-150-10-154-114-4-87 153-88 188-35 5 8 8 18 10 28" id="n"/><path fill="#333" d="M128 0H69L1-190h53L99-40l48-150h52" id="o"/><path fill="#333" d="M4 7l51-268h42L46 7H4" id="p"/><path fill="#333" d="M186 0v-106H76V0H24v-248h52v99h110v-99h50V0h-50" id="q"/><path fill="#333" d="M110-194c64 0 96 36 96 99 0 64-35 99-97 99-61 0-95-36-95-99 0-62 34-99 96-99zm-1 164c35 0 45-28 45-65 0-40-10-65-43-65-34 0-45 26-45 65 0 36 10 65 43 65" id="r"/><path fill="#333" d="M137-138c1-29-70-34-71-4 15 46 118 7 119 86 1 83-164 76-172 9l43-7c4 19 20 25 44 25 33 8 57-30 24-41C81-84 22-81 20-136c-2-80 154-74 161-7" id="s"/><g id="b"><use transform="matrix(0.06172839506172839,0,0,0.06172839506172839,0,0)" xlink:href="#n"/><use transform="matrix(0.06172839506172839,0,0,0.06172839506172839,14.814814814814813,0)" xlink:href="#l"/><use transform="matrix(0.06172839506172839,0,0,0.06172839506172839,27.160493827160494,0)" xlink:href="#m"/><use transform="matrix(0.06172839506172839,0,0,0.06172839506172839,35.80246913580247,0)" xlink:href="#o"/><use transform="matrix(0.06172839506172839,0,0,0.06172839506172839,48.148148148148145,0)" xlink:href="#l"/><use transform="matrix(0.06172839506172839,0,0,0.06172839506172839,60.49382716049382,0)" xlink:href="#m"/><use transform="matrix(0.06172839506172839,0,0,0.06172839506172839,69.1358024691358,0)" xlink:href="#p"/><use transform="matrix(0.06172839506172839,0,0,0.06172839506172839,75.30864197530863,0)" xlink:href="#q"/><use transform="matrix(0.06172839506172839,0,0,0.06172839506172839,91.29629629629629,0)" xlink:href="#r"/><use transform="matrix(0.06172839506172839,0,0,0.06172839506172839,104.81481481481481,0)" xlink:href="#s"/><use transform="matrix(0.06172839506172839,0,0,0.06172839506172839,117.1604938271605,0)" xlink:href="#h"/></g><path fill="#333" d="M24 0v-248h52V0H24" id="t"/><path fill="#333" d="M67-125c0 53 21 87 73 88 37 1 54-22 65-47l45 17C233-25 199 4 140 4 58 4 20-42 15-125 8-235 124-281 211-232c18 10 29 29 36 50l-46 12c-8-25-30-41-62-41-52 0-71 34-72 86" id="u"/><path fill="#333" d="M230 0l2-204L168 0h-37L68-204 70 0H24v-248h70l56 185 57-185h69V0h-46" id="v"/><path fill="#333" d="M24-248c93 1 206-16 204 79-1 75-69 88-152 82V0H24v-248zm52 121c47 0 100 7 100-41 0-47-54-39-100-39v80" id="w"/><g id="c"><use transform="matrix(0.06172839506172839,0,0,0.06172839506172839,0,0)" xlink:href="#t"/><use transform="matrix(0.06172839506172839,0,0,0.06172839506172839,6.172839506172839,0)" xlink:href="#u"/><use transform="matrix(0.06172839506172839,0,0,0.06172839506172839,22.160493827160494,0)" xlink:href="#v"/><use transform="matrix(0.06172839506172839,0,0,0.06172839506172839,40.61728395061728,0)" xlink:href="#w"/></g><path fill="#333" d="M24 0v-248h195v40H76v63h132v40H76v65h150V0H24" id="x"/><path fill="#333" d="M140-251c80 0 125 45 125 126S219 4 139 4C58 4 15-44 15-125s44-126 125-126zm-1 214c52 0 73-35 73-88 0-50-21-86-72-86-52 0-73 35-73 86s22 88 72 88" id="y"/><g id="d"><use transform="matrix(0.06172839506172839,0,0,0.06172839506172839,0,0)" xlink:href="#x"/><use transform="matrix(0.06172839506172839,0,0,0.06172839506172839,14.814814814814813,0)" xlink:href="#u"/><use transform="matrix(0.06172839506172839,0,0,0.06172839506172839,30.80246913580247,0)" xlink:href="#q"/><use transform="matrix(0.06172839506172839,0,0,0.06172839506172839,46.79012345679012,0)" xlink:href="#y"/></g><path fill="#333" d="M240-174c0 40-23 61-54 70L253 0h-59l-57-94H76V0H24v-248c93 4 217-23 216 74zM76-134c48-2 112 12 112-38 0-48-66-32-112-35v73" id="z"/><path fill="#333" d="M140-251c80 0 125 45 125 126 0 70-33 111-92 124 6 28 34 38 68 31l-1 36C177 83 129 55 120 2 51-6 15-50 15-125c0-81 44-126 125-126zm-1 214c52 0 73-35 73-88 0-50-21-86-72-86-52 0-73 35-73 86s22 88 72 88" id="A"/><path fill="#333" d="M238-95c0 69-44 99-111 99C63 4 22-25 22-93v-155h51v151c-1 38 19 59 55 60 90 1 49-130 58-211h52v153" id="B"/><path fill="#333" d="M136-208V0H84v-208H4v-40h212v40h-80" id="C"/><g id="e"><use transform="matrix(0.06172839506172839,0,0,0.06172839506172839,0,0)" xlink:href="#z"/><use transform="matrix(0.06172839506172839,0,0,0.06172839506172839,15.987654320987653,0)" xlink:href="#x"/><use transform="matrix(0.06172839506172839,0,0,0.06172839506172839,30.80246913580247,0)" xlink:href="#A"/><use transform="matrix(0.06172839506172839,0,0,0.06172839506172839,48.08641975308642,0)" xlink:href="#B"/><use transform="matrix(0.06172839506172839,0,0,0.06172839506172839,64.07407407407408,0)" xlink:href="#x"/><use transform="matrix(0.06172839506172839,0,0,0.06172839506172839,78.88888888888889,0)" xlink:href="#n"/><use transform="matrix(0.06172839506172839,0,0,0.06172839506172839,93.7037037037037,0)" xlink:href="#C"/></g><path fill="#333" d="M24 0v-248h52v208h133V0H24" id="D"/><path fill="#333" d="M146-102V0H94v-102L6-248h54l60 105 60-105h54" id="E"/><g id="f"><use transform="matrix(0.06172839506172839,0,0,0.06172839506172839,0,0)" xlink:href="#z"/><use transform="matrix(0.06172839506172839,0,0,0.06172839506172839,15.987654320987653,0)" xlink:href="#x"/><use transform="matrix(0.06172839506172839,0,0,0.06172839506172839,30.80246913580247,0)" xlink:href="#w"/><use transform="matrix(0.06172839506172839,0,0,0.06172839506172839,45.61728395061728,0)" xlink:href="#D"/><use transform="matrix(0.06172839506172839,0,0,0.06172839506172839,57.09876543209876,0)" xlink:href="#E"/></g></defs></g></svg>